<svg version="1.1" id="Layer_1" xmlns="http://www.w3.org/2000/svg" xmlns:xlink="http://www.w3.org/1999/xlink" x="0px" y="0px"
	 width="100%" viewBox="0 0 2000 2000" enable-background="new 0 0 2000 2000" xml:space="preserve">
<path fill="#FFFFFF" opacity="1.000000" stroke="none" 
	d="
M324.470154,1372.522461 
	C281.961975,1293.500488 239.661850,1214.784912 197.365662,1136.067139 
	C159.248352,1065.126709 121.134087,994.184631 83.021034,923.241882 
	C59.215900,878.931519 35.414536,834.619202 11.616239,790.305237 
	C10.696174,788.591980 9.825432,786.852356 8.607280,784.497986 
	C10.925615,784.497986 12.558071,784.498047 14.190527,784.497986 
	C84.184845,784.497192 154.179199,784.525818 224.173340,784.412170 
	C227.829132,784.406250 229.666489,785.498901 231.378815,788.794006 
	C282.977020,888.089966 334.699371,987.321289 386.407532,1086.560059 
	C402.585724,1117.609619 418.778137,1148.651733 434.968994,1179.694580 
	C435.651367,1181.002930 436.384155,1182.284912 437.383575,1184.108643 
	C447.436493,1164.512939 457.297821,1145.432983 466.914093,1126.230225 
	C467.565155,1124.930054 466.792450,1122.481567 465.973572,1120.944336 
	C446.529846,1084.443604 426.990295,1047.993896 407.465393,1011.536316 
	C378.308319,957.093140 349.147522,902.651978 319.991455,848.208252 
	C309.497681,828.612915 299.009979,809.014343 288.531036,789.411072 
	C287.774323,787.995483 287.112213,786.529297 286.115387,784.492615 
	C288.142334,784.492615 289.583984,784.492554 291.025665,784.492615 
	C361.186646,784.493835 431.347656,784.524841 501.508423,784.411194 
	C505.135834,784.405334 507.108185,785.402100 508.820282,788.688293 
	C531.915955,833.017639 555.146484,877.276855 578.370239,921.539429 
	C617.475952,996.071411 656.600952,1070.593262 695.717407,1145.119629 
	C701.723877,1156.563477 707.726624,1168.009399 713.736450,1179.451416 
	C714.490723,1180.887573 715.278198,1182.306274 716.281555,1184.160400 
	C741.792358,1135.163818 767.001770,1086.725586 792.229919,1038.297119 
	C831.283325,963.329468 870.348267,888.367737 909.412048,813.405334 
	C913.850159,804.888672 918.411804,796.434204 922.697937,787.841980 
	C923.893433,785.445190 925.198914,784.436340 927.965454,784.439331 
	C999.459595,784.516113 1070.953735,784.502502 1142.447998,784.514709 
	C1142.926758,784.514832 1143.405518,784.657532 1144.849976,784.887146 
	C1001.969299,1051.187744 859.279846,1317.131958 715.818787,1584.514404 
	C669.285461,1497.759277 623.239319,1411.912231 576.766357,1325.269531 
	C530.265320,1411.460083 484.126862,1496.978760 437.633698,1583.154785 
	C399.783142,1512.674683 362.231537,1442.751221 324.470154,1372.522461 
z"/>
<path fill="#00E5FF" opacity="1.000000" stroke="none" 
	d="
M1620.218140,760.781860 
	C1605.181519,745.652344 1590.395386,730.772156 1575.648926,715.931824 
	C1496.954834,794.656433 1418.641724,873.000061 1339.994873,951.677429 
	C1292.554688,904.906799 1245.733521,858.746338 1199.140137,812.810486 
	C1325.367065,686.713013 1451.372925,560.836426 1576.566406,435.771362 
	C1702.100464,560.719971 1828.311768,686.342712 1954.867188,812.307922 
	C1907.311523,859.214844 1860.030518,905.850769 1811.929443,953.295715 
	C1747.920898,889.018555 1684.194824,825.024902 1620.218140,760.781860 
z"/>
</svg>