<svg xmlns="http://www.w3.org/2000/svg" viewBox="0 0 35 34" fill="none">
  <path d="M0 16.8696C0 7.55095 7.62573 -0.000976562 17.0355 -0.000976562C26.4452 -0.000976562 34.0694 7.55095 34.0694 16.8696C34.0694 25.0222 28.2332 31.8225 20.4708 33.3969C19.3621 33.6221 18.213 33.7387 17.0402 33.7387H0V16.8688V16.8696Z" fill="#027E6F"/>
  <path d="M28.8225 15.2716H21.1462L19.3385 18.3726H25.6683C24.6764 23.7659 18.6199 27.4379 12.5673 24.3322C11.2658 23.665 10.206 22.6335 9.52126 21.3446C6.0393 14.7796 10.7959 8.17485 17.0728 8.17485C19.6607 8.17485 21.9913 9.29715 23.5921 11.0764L25.2142 8.29373C22.9034 6.12732 19.7137 4.8658 16.2356 5.10825C10.3142 5.51259 5.51333 10.3733 5.22508 16.243C4.89654 22.9823 10.3363 28.5657 17.0688 28.5657C23.8014 28.5657 28.9291 23.2951 28.9291 16.8194C28.9291 16.293 28.8889 15.7768 28.8217 15.2716H28.8225Z" fill="white"/>
</svg>
