<svg xmlns="http://www.w3.org/2000/svg" viewBox="0 0 399 120" fill="white"><path d="M24.80 95L14.26 95L14.26 29.49L24.51 29.49L24.57 41.50Q25.86 37.87 28.03 35.29L28.03 35.29Q30.90 31.84 34.79 30.08Q38.69 28.32 42.91 28.32L42.91 28.32Q50.06 28.32 54.51 32.71L54.51 32.71Q58.09 36.29 59.61 41.62L59.61 41.62Q60.84 38.34 63.07 35.76L63.07 35.76Q66.17 32.19 70.60 30.25Q75.02 28.32 80.23 28.32L80.23 28.32Q85.92 28.32 90.61 30.78Q95.29 33.24 98.08 38.22Q100.86 43.20 100.86 50.82L100.86 50.82L100.86 95L90.31 95L90.31 51.11Q90.31 44.02 86.33 40.98Q82.34 37.93 77.07 37.93L77.07 37.93Q72.68 37.93 69.48 39.78Q66.29 41.62 64.56 44.84Q62.83 48.07 62.83 52.23L62.83 52.23L62.83 95L52.29 95L52.29 50.06Q52.29 44.61 48.65 41.27Q45.02 37.93 39.45 37.93L39.45 37.93Q35.64 37.93 32.28 39.72Q28.91 41.50 26.86 45.02Q24.80 48.54 24.80 53.75L24.80 53.75L24.80 95ZM146.04 96.41L146.04 96.41Q137.13 96.41 130.42 92.19Q123.71 87.97 119.96 80.35Q116.21 72.73 116.21 62.66L116.21 62.66Q116.21 52.40 119.96 44.76Q123.71 37.11 130.42 32.89Q137.13 28.67 146.04 28.67L146.04 28.67Q155 28.67 161.74 32.89Q168.48 37.11 172.23 44.76Q175.98 52.40 175.98 62.66L175.98 62.66Q175.98 72.73 172.23 80.35Q168.48 87.97 161.74 92.19Q155 96.41 146.04 96.41ZM146.04 86.97L146.04 86.97Q152.66 86.97 156.93 83.57Q161.21 80.18 163.26 74.64Q165.31 69.10 165.31 62.66L165.31 62.66Q165.31 56.15 163.26 50.56Q161.21 44.96 156.93 41.53Q152.66 38.11 146.04 38.11L146.04 38.11Q139.47 38.11 135.25 41.53Q131.04 44.96 128.98 50.53Q126.93 56.09 126.93 62.66L126.93 62.66Q126.93 69.10 128.98 74.64Q131.04 80.18 135.25 83.57Q139.47 86.97 146.04 86.97ZM203.63 29.49L217.11 29.49L217.11 38.52L203.63 38.52L203.63 78.01Q203.63 82.40 205.42 84.42Q207.21 86.45 211.37 86.45L211.37 86.45Q212.36 86.45 213.92 86.21Q215.47 85.98 216.76 85.74L216.76 85.74L218.93 94.65Q217.29 95.23 215.21 95.53Q213.13 95.82 211.07 95.82L211.07 95.82Q202.58 95.82 197.83 91.34Q193.09 86.86 193.09 78.83L193.09 78.83L193.09 38.52L183.24 38.52L183.24 29.49L193.09 29.49L193.09 13.91L203.63 13.91L203.63 29.49ZM241.13 95L230.59 95L230.59 29.49L241.13 29.49L241.13 95ZM235.92 18.77L235.92 18.77Q232.93 18.77 230.76 16.72Q228.59 14.67 228.59 11.80L228.59 11.80Q228.59 8.87 230.76 6.85Q232.93 4.82 235.92 4.82L235.92 4.82Q238.96 4.82 241.13 6.85Q243.30 8.87 243.30 11.80L243.30 11.80Q243.30 14.67 241.13 16.72Q238.96 18.77 235.92 18.77ZM286.31 96.41L286.31 96.41Q277.40 96.41 270.69 92.19Q263.98 87.97 260.23 80.35Q256.48 72.73 256.48 62.66L256.48 62.66Q256.48 52.40 260.23 44.76Q263.98 37.11 270.69 32.89Q277.40 28.67 286.31 28.67L286.31 28.67Q295.27 28.67 302.01 32.89Q308.75 37.11 312.50 44.76Q316.25 52.40 316.25 62.66L316.25 62.66Q316.25 72.73 312.50 80.35Q308.75 87.97 302.01 92.19Q295.27 96.41 286.31 96.41ZM286.31 86.97L286.31 86.97Q292.93 86.97 297.21 83.57Q301.48 80.18 303.54 74.64Q305.59 69.10 305.59 62.66L305.59 62.66Q305.59 56.15 303.54 50.56Q301.48 44.96 297.21 41.53Q292.93 38.11 286.31 38.11L286.31 38.11Q279.75 38.11 275.53 41.53Q271.31 44.96 269.26 50.53Q267.21 56.09 267.21 62.66L267.21 62.66Q267.21 69.10 269.26 74.64Q271.31 80.18 275.53 83.57Q279.75 86.97 286.31 86.97ZM342.15 55.74L342.15 55.74L342.15 95L331.60 95L331.60 29.49L341.74 29.49L341.80 41.62Q344.55 35.47 348.89 32.48L348.89 32.48Q354.39 28.67 361.84 28.67L361.84 28.67Q368.46 28.67 373.44 31.40Q378.42 34.12 381.20 39.60Q383.98 45.08 383.98 53.40L383.98 53.40L383.98 95L373.44 95L373.44 54.28Q373.44 46.72 369.48 42.44Q365.53 38.16 358.67 38.16L358.67 38.16Q353.98 38.16 350.23 40.21Q346.48 42.27 344.32 46.19Q342.15 50.12 342.15 55.74Z"/></svg>